<svg width="14" height="13" viewBox="0 0 14 13" fill="none" xmlns="http://www.w3.org/2000/svg">
<path d="M6.14413 0.63437C6.41413 -0.19453 7.58683 -0.19453 7.85593 0.63437L8.81893 3.59717C8.87776 3.77761 8.99213 3.93483 9.14569 4.04636C9.29925 4.1579 9.48414 4.21803 9.67393 4.21817H12.7897C13.6618 4.21817 14.0236 5.33417 13.3189 5.84717L10.7989 7.67777C10.6451 7.7894 10.5305 7.94688 10.4716 8.12764C10.4128 8.3084 10.4127 8.50315 10.4713 8.68397L11.4343 11.6468C11.7043 12.4757 10.7548 13.166 10.0483 12.653L7.52833 10.8224C7.37461 10.7108 7.18953 10.6507 6.99958 10.6507C6.80962 10.6507 6.62454 10.7108 6.47083 10.8224L3.95083 12.653C3.24523 13.166 2.29663 12.4757 2.56573 11.6468L3.52873 8.68397C3.58738 8.50315 3.58728 8.3084 3.52843 8.12764C3.46957 7.94688 3.355 7.7894 3.20113 7.67777L0.682026 5.84807C-0.0226744 5.33507 0.340026 4.21907 1.21123 4.21907H4.32613C4.51607 4.21912 4.70116 4.15907 4.8549 4.04753C5.00864 3.93598 5.12314 3.77866 5.18203 3.59807L6.14503 0.63527L6.14413 0.63437Z" fill="#FCD980"/>
</svg>
