<svg width="24" height="24" viewBox="0 0 24 24" fill="none" xmlns="http://www.w3.org/2000/svg">
<g opacity="0.8">
<path d="M14.752 11.1681L11.555 9.03607C11.4043 8.9355 11.229 8.87778 11.048 8.86907C10.867 8.86037 10.687 8.90102 10.5274 8.98667C10.3677 9.07232 10.2342 9.19975 10.1414 9.35535C10.0485 9.51095 9.99961 9.68886 10 9.87007V14.1331C9.99998 14.3141 10.0491 14.4918 10.1421 14.6471C10.2352 14.8024 10.3686 14.9295 10.5282 15.0149C10.6879 15.1004 10.8677 15.1408 11.0485 15.132C11.2293 15.1233 11.4044 15.0656 11.555 14.9651L14.752 12.8331C14.889 12.7417 15.0013 12.618 15.0789 12.4729C15.1566 12.3278 15.1972 12.1657 15.1972 12.0011C15.1972 11.8365 15.1566 11.6744 15.0789 11.5293C15.0013 11.3841 14.889 11.2604 14.752 11.1691V11.1681Z" stroke="black" stroke-width="1.5" stroke-linecap="round" stroke-linejoin="round"/>
<path d="M21 12C21 13.1819 20.7672 14.3522 20.3149 15.4442C19.8626 16.5361 19.1997 17.5282 18.364 18.364C17.5282 19.1997 16.5361 19.8626 15.4442 20.3149C14.3522 20.7672 13.1819 21 12 21C10.8181 21 9.64778 20.7672 8.55585 20.3149C7.46392 19.8626 6.47177 19.1997 5.63604 18.364C4.80031 17.5282 4.13738 16.5361 3.68508 15.4442C3.23279 14.3522 3 13.1819 3 12C3 9.61305 3.94821 7.32387 5.63604 5.63604C7.32387 3.94821 9.61305 3 12 3C14.3869 3 16.6761 3.94821 18.364 5.63604C20.0518 7.32387 21 9.61305 21 12Z" stroke="black" stroke-width="1.5" stroke-linecap="round" stroke-linejoin="round"/>
</g>
</svg>
